<svg xmlns="http://www.w3.org/2000/svg" width="64" height="64" viewBox="0 0 64 64">
  <defs>
    <style>
      .cls-1 {
        fill: #004899;
      }

      .cls-1, .cls-2 {
        fill-rule: evenodd;
      }

      .cls-2 {
        fill: #fff;
      }
    </style>
  </defs>
  <g id="special_start">
    <path id="Rechteck_1_Kopie_2" data-name="Rechteck 1 Kopie 2" class="cls-1" d="M481,754h60v59.99H481V754Z" transform="translate(-479 -752)"/>
    <path id="Start" class="cls-2" d="M490.8,788.7a2.43,2.43,0,0,0,.516.231,6.48,6.48,0,0,0,.67.183q0.353,0.077.7,0.117a5.218,5.218,0,0,0,1.992-.136,3.262,3.262,0,0,0,1.1-.52,2.354,2.354,0,0,0,.718-0.867,2.73,2.73,0,0,0,.256-1.213,2.441,2.441,0,0,0-.161-0.9,2.565,2.565,0,0,0-.487-0.769,4.441,4.441,0,0,0-.817-0.7,12.766,12.766,0,0,0-1.15-.685q-0.63-.336-1.065-0.6a3.7,3.7,0,0,1-.7-0.523,1.684,1.684,0,0,1-.389-0.561,1.876,1.876,0,0,1-.12-0.706,1.546,1.546,0,0,1,.179-0.759,1.61,1.61,0,0,1,.491-0.545,2.267,2.267,0,0,1,.725-0.333,3.309,3.309,0,0,1,.882-0.114,4.3,4.3,0,0,1,2.183.535v-1.077a5.471,5.471,0,0,0-2.073-.344,4.471,4.471,0,0,0-1.322.19,3.379,3.379,0,0,0-1.08.546,2.676,2.676,0,0,0-.733.86,2.388,2.388,0,0,0-.271,1.143,2.649,2.649,0,0,0,.143.9,2.236,2.236,0,0,0,.447.736,4.272,4.272,0,0,0,.784.667q0.479,0.325,1.153.692,0.609,0.336,1.055.6a4.521,4.521,0,0,1,.74.538,1.806,1.806,0,0,1,.432.583,1.764,1.764,0,0,1,.139.728,1.582,1.582,0,0,1-.593,1.326,2.885,2.885,0,0,1-1.787.461,3.976,3.976,0,0,1-.645-0.055,4.721,4.721,0,0,1-1.322-.424,3.717,3.717,0,0,1-.582-0.356V788.7Zm14.758-9.214v-0.893h-7.032v0.893h3.025V789.1h0.974v-9.609h3.033Zm9.088,9.609-3.977-10.5h-0.981l-4,10.5h1.084l1.128-3.105h4.5l1.157,3.105h1.084Zm-2.57-3.991h-3.846l1.7-4.673c0.034-.093.069-0.2,0.106-0.322s0.069-.261.1-0.418h0.029a3.176,3.176,0,0,0,.091.418c0.037,0.122.072,0.229,0.107,0.322Zm11.688,3.991L522,785.845q-0.175-.33-0.337-0.586a4.039,4.039,0,0,0-.326-0.454,2.248,2.248,0,0,0-.34-0.337,1.6,1.6,0,0,0-.388-0.227v-0.03a3.559,3.559,0,0,0,1-.377,2.819,2.819,0,0,0,.755-0.615,2.659,2.659,0,0,0,.48-0.831,3.025,3.025,0,0,0,.168-1.026,2.669,2.669,0,0,0-.26-1.208,2.541,2.541,0,0,0-.692-0.865,3.077,3.077,0,0,0-.985-0.52,3.77,3.77,0,0,0-1.147-.175H516.9v10.5h0.974v-4.57h1.157a2.165,2.165,0,0,1,.6.077,1.522,1.522,0,0,1,.5.256,2.369,2.369,0,0,1,.454.48,6.11,6.11,0,0,1,.454.747l1.582,3.01h1.142Zm-4.065-9.609a2.485,2.485,0,0,1,1.7.524,1.826,1.826,0,0,1,.59,1.439,2.3,2.3,0,0,1-.172.908,1.977,1.977,0,0,1-.484.689,2.13,2.13,0,0,1-.75.439,2.9,2.9,0,0,1-.967.154h-1.743v-4.153H519.7Zm12.1,0v-0.893h-7.031v0.893h3.025V789.1h0.974v-9.609h3.032Z" transform="translate(-479 -752)"/>
  </g>
</svg>
