<svg xmlns="http://www.w3.org/2000/svg" width="64" height="64" viewBox="0 0 64 64">
  <defs>
    <style>
      .cls-1 {
        fill: #e60404;
      }

      .cls-1, .cls-2 {
        fill-rule: evenodd;
      }

      .cls-2 {
        fill: #fff;
      }
    </style>
  </defs>
  <g id="special_nolayout">
    <path id="Rechteck_1_Kopie_2" data-name="Rechteck 1 Kopie 2" class="cls-1" d="M317,754h60v59.99H317V754Z" transform="translate(-315 -752)"/>
    <path id="No" class="cls-2" d="M344.125,789.1v-10.5h-0.981V786.4c0,0.244,0,.467.014,0.667s0.025,0.381.044,0.542h-0.037c-0.058-.1-0.123-0.2-0.194-0.319s-0.15-.238-0.238-0.37L337,778.594h-1.076v10.5H336.9v-8.137c0-.234,0-0.429-0.011-0.586s-0.016-.278-0.026-0.366H336.9a2.136,2.136,0,0,0,.172.33c0.071,0.112.143,0.222,0.216,0.329l5.83,8.43h1.011Zm9.737-.241a4.436,4.436,0,0,0,1.56-1.172,5.094,5.094,0,0,0,.959-1.769,7.227,7.227,0,0,0,.326-2.215,6.422,6.422,0,0,0-.333-2.1,4.929,4.929,0,0,0-.956-1.673,4.387,4.387,0,0,0-1.508-1.106,4.823,4.823,0,0,0-2-.4,5.4,5.4,0,0,0-2.153.406,4.5,4.5,0,0,0-1.6,1.136,4.908,4.908,0,0,0-.992,1.75,7.089,7.089,0,0,0-.341,2.252,6.252,6.252,0,0,0,.341,2.084,5.026,5.026,0,0,0,.974,1.688,4.532,4.532,0,0,0,1.541,1.132,4.876,4.876,0,0,0,2.044.414A5.076,5.076,0,0,0,353.862,788.855Zm-0.3-9.188a3.362,3.362,0,0,1,1.2.981,4.132,4.132,0,0,1,.7,1.447,6.681,6.681,0,0,1,.223,1.75,6.293,6.293,0,0,1-.252,1.824,4.117,4.117,0,0,1-.751,1.439,3.436,3.436,0,0,1-1.242.945,4.1,4.1,0,0,1-1.724.34,3.723,3.723,0,0,1-1.714-.373,3.494,3.494,0,0,1-1.212-1,4.322,4.322,0,0,1-.718-1.443,5.887,5.887,0,0,1-.231-1.71,6.068,6.068,0,0,1,.267-1.769,4.306,4.306,0,0,1,.766-1.45,3.673,3.673,0,0,1,1.241-.981,3.771,3.771,0,0,1,1.688-.363A3.921,3.921,0,0,1,353.565,779.667Z" transform="translate(-315 -752)"/>
  </g>
</svg>
