<svg xmlns="http://www.w3.org/2000/svg" width="64" height="64" viewBox="0 0 64 64">
  <defs>
    <style>
      .cls-1 {
        fill: #009640;
      }

      .cls-1, .cls-2 {
        fill-rule: evenodd;
      }

      .cls-2 {
        fill: #fff;
      }
    </style>
  </defs>
  <g id="special_single">
    <path id="Rechteck_1_Kopie_2" data-name="Rechteck 1 Kopie 2" class="cls-1" d="M645,754h60v59.99H645V754Z" transform="translate(-643 -752)"/>
    <path id="Single_Kopie" data-name="Single Kopie" class="cls-2" d="M650.952,788.7a2.43,2.43,0,0,0,.516.231,6.48,6.48,0,0,0,.67.183q0.353,0.077.7,0.117a5.218,5.218,0,0,0,1.992-.136,3.262,3.262,0,0,0,1.1-.52,2.354,2.354,0,0,0,.718-0.867,2.73,2.73,0,0,0,.256-1.213,2.441,2.441,0,0,0-.161-0.9,2.565,2.565,0,0,0-.487-0.769,4.441,4.441,0,0,0-.817-0.7,12.766,12.766,0,0,0-1.15-.685q-0.63-.336-1.065-0.6a3.7,3.7,0,0,1-.7-0.523,1.684,1.684,0,0,1-.389-0.561,1.876,1.876,0,0,1-.12-0.706,1.546,1.546,0,0,1,.179-0.759,1.61,1.61,0,0,1,.491-0.545,2.267,2.267,0,0,1,.725-0.333,3.309,3.309,0,0,1,.882-0.114,4.3,4.3,0,0,1,2.183.535v-1.077a5.471,5.471,0,0,0-2.073-.344,4.471,4.471,0,0,0-1.322.19,3.389,3.389,0,0,0-1.08.546,2.676,2.676,0,0,0-.733.86,2.388,2.388,0,0,0-.271,1.143,2.649,2.649,0,0,0,.143.9,2.253,2.253,0,0,0,.447.736,4.272,4.272,0,0,0,.784.667q0.48,0.325,1.153.692,0.609,0.336,1.055.6a4.521,4.521,0,0,1,.74.538,1.806,1.806,0,0,1,.432.583,1.764,1.764,0,0,1,.139.728,1.582,1.582,0,0,1-.593,1.326,2.883,2.883,0,0,1-1.787.461,3.976,3.976,0,0,1-.645-0.055,4.721,4.721,0,0,1-1.322-.424,3.717,3.717,0,0,1-.582-0.356V788.7Zm9.7-10.107h-0.975v10.5h0.975v-10.5Zm11.535,10.5v-10.5H671.2V786.4c0,0.244,0,.467.015,0.667s0.024,0.381.044,0.542h-0.037c-0.058-.1-0.123-0.2-0.194-0.319s-0.15-.238-0.238-0.37l-5.735-8.327H663.98v10.5h0.975v-8.137c0-.234,0-0.429-0.011-0.586s-0.016-.278-0.026-0.366h0.037a2.136,2.136,0,0,0,.172.33c0.07,0.112.143,0.222,0.216,0.329l5.83,8.43h1.011Zm11.044-5.346h-3.362v0.886h2.388v3.2a4.618,4.618,0,0,1-2.315.556,4.231,4.231,0,0,1-1.743-.337,3.533,3.533,0,0,1-1.267-.937,4.036,4.036,0,0,1-.773-1.425,5.8,5.8,0,0,1-.252-1.8,5.493,5.493,0,0,1,.307-1.82,4.4,4.4,0,0,1,.846-1.454,3.889,3.889,0,0,1,1.322-.966,4.152,4.152,0,0,1,1.736-.352,5.892,5.892,0,0,1,2.9.747v-1.077a6.657,6.657,0,0,0-2.784-.556,5.785,5.785,0,0,0-1.545.2,5.017,5.017,0,0,0-1.315.564,4.853,4.853,0,0,0-1.058.871,5.107,5.107,0,0,0-.78,1.128,5.753,5.753,0,0,0-.484,1.333,6.582,6.582,0,0,0-.164,1.48,6.412,6.412,0,0,0,.34,2.135,4.8,4.8,0,0,0,.978,1.669,4.435,4.435,0,0,0,1.545,1.092,5.135,5.135,0,0,0,2.051.392,6.9,6.9,0,0,0,3.428-.909V783.75Zm8.224,5.346V788.21h-4.218v-9.616H686.26v10.5h5.192Zm7.727,0V788.21H694.8v-3.991h3.838V783.34H694.8v-3.853h4.146v-0.893h-5.12v10.5h5.354Z" transform="translate(-643 -752)"/>
  </g>
</svg>
